# xmcd CD database file
#
# Track frame offsets:
#	150
#	11921
#	29073
#	45511
#	63390
#	83434
#	96625
#	113205
#	131731
#	148635
#	161201
#	178540
#	189524
#	204487
#	220749
#	238188
#	257047
#	278201
#	294902
#	303495
#
# Disc length: 4280 seconds
#
# Revision: 0
# Processed by: cddbd v1.5.2PL0 Copyright (c) Steve Scherf et al.
# Submitted via: CDex 1.70beta2
#
DISCID=2e10b614
DTITLE=Enya - 2001 (Chinese)
DYEAR=2001
DGENRE=New Age
TTITLE0=Deora ar mo Chroi
TTITLE1=Wild Child
TTITLE2=Only Time
TTITLE3=Caribbean Blue
TTITLE4=Orinoco Flow
TTITLE5=Book of Days
TTITLE6=Shepherd Moons
TTITLE7=Flora's Secret
TTITLE8=Anywhere Is
TTITLE9=Deora ar mo Chroi
TTITLE10=Evening Falls...
TTITLE11=Watermark
TTITLE12=Only If...
TTITLE13=On My Way Home
TTITLE14=Evacuee
TTITLE15=Storms in Africa
TTITLE16=China Roses
TTITLE17=Lazy Days
TTITLE18=Marble Halls
TTITLE19=Ebudae
EXTD=YEAR: 2001
EXTT0=
EXTT1=
EXTT2=
EXTT3=
EXTT4=
EXTT5=
EXTT6=
EXTT7=
EXTT8=
EXTT9=
EXTT10=
EXTT11=
EXTT12=
EXTT13=
EXTT14=
EXTT15=
EXTT16=
EXTT17=
EXTT18=
EXTT19=
PLAYORDER=
